<svg width="7" height="7" viewBox="0 0 7 7" fill="none" xmlns="http://www.w3.org/2000/svg">
<path d="M4.35962 0.0875508C4.58996 -0.108678 4.9562 0.0464029 4.9562 0.340066V6.65975C4.9562 6.9536 4.58996 7.10868 4.35962 6.91246L2.68248 5.48276C2.50436 5.33084 2.2734 5.24679 2.03399 5.24675H1.07299C0.788417 5.24675 0.515497 5.13939 0.314272 4.94829C0.113047 4.75719 0 4.49801 0 4.22776V2.77206C0 2.20919 0.480292 1.75307 1.07299 1.75307H2.03399C2.2734 1.75302 2.50436 1.66897 2.68248 1.51705L4.35962 0.0873567V0.0875508ZM4.44526 0.666531L3.0238 1.87845C2.75186 2.11019 2.39935 2.23834 2.03399 2.2383H1.07299C0.923929 2.2383 0.780971 2.29453 0.675568 2.39463C0.570164 2.49473 0.510949 2.63049 0.510949 2.77206V4.22776C0.510949 4.36932 0.570164 4.50508 0.675568 4.60518C0.780971 4.70528 0.923929 4.76151 1.07299 4.76151H2.03399C2.39938 4.76152 2.75189 4.88975 3.0238 5.12156L4.44526 6.33367V0.666531ZM5.84199 1.63661C5.86481 1.61324 5.89225 1.59437 5.92276 1.58108C5.95326 1.56779 5.98622 1.56034 6.01976 1.55915C6.0533 1.55796 6.08675 1.56306 6.11821 1.57415C6.14968 1.58524 6.17853 1.60211 6.20312 1.6238L6.20333 1.62419L6.20374 1.62458L6.20476 1.62555L6.20762 1.62788L6.2162 1.63583C6.25825 1.67586 6.29848 1.71756 6.33679 1.76083C6.41139 1.84545 6.50969 1.9689 6.60759 2.12825C6.86444 2.54422 6.99989 3.01769 7 3.49991C7 4.08665 6.80318 4.55306 6.60759 4.87176C6.50949 5.03091 6.41139 5.15455 6.33658 5.23918C6.29828 5.28245 6.25805 5.32416 6.216 5.36417L6.21212 5.36786L6.20762 5.37194L6.20476 5.37446L6.20374 5.37543L6.20333 5.37601H6.20292C6.15318 5.41877 6.08772 5.44123 6.02068 5.43854C5.95364 5.43585 5.89041 5.40822 5.84465 5.36163C5.79888 5.31503 5.77426 5.2532 5.77609 5.18951C5.77793 5.12581 5.80607 5.06536 5.85445 5.02121L5.85486 5.02082L5.85813 5.01772C5.86161 5.01442 5.86753 5.00898 5.8755 5.00102C5.89145 4.9853 5.91556 4.96046 5.94499 4.92707C6.00426 4.85992 6.08499 4.75899 6.16593 4.6272C6.37733 4.28543 6.48887 3.89628 6.48905 3.49991C6.48905 3.01914 6.3282 2.63638 6.16613 2.37281C6.0852 2.24082 6.00467 2.13989 5.9454 2.07293C5.91768 2.04161 5.88864 2.01137 5.85834 1.98229L5.85486 1.97899L5.85507 1.97918C5.80555 1.93537 5.77636 1.87469 5.77391 1.81047C5.77146 1.74624 5.79594 1.68371 5.84199 1.63661ZM6.20312 1.6238L6.2162 1.63583C6.21143 1.63225 6.20705 1.62822 6.20312 1.6238Z" fill="#14B390"/>
</svg>
