<svg width="116" height="25" viewBox="0 0 116 25" fill="none" xmlns="http://www.w3.org/2000/svg">
<path d="M17.2617 0.817413L22.2912 11.0512H12.2322L17.2617 0.817413Z" fill="#14B390"/>
<rect y="0.817413" width="10.2305" height="10.2305" fill="#14B390"/>
<rect x="12.1318" y="12.9524" width="10.2305" height="10.2305" fill="#14B390"/>
<rect y="12.9524" width="10.2305" height="10.2305" fill="#14B390"/>
<path d="M48.5374 2.126H45.8754V21.178H48.5374V11.08H50.3414V22.168H53.0034V1.708H50.3414V8.682H48.5374V2.126ZM35.8434 3.644V16.734H39.2314C41.0574 16.734 43.1914 16.668 44.9734 16.36L44.6874 13.984C42.8614 14.27 41.0134 14.336 39.2314 14.336H38.5934V6.042H43.7414V3.644H35.8434ZM59.2329 12.84V15.04H69.4849V16.558H59.3429V22.366H72.7849V20.166H62.0269V18.648H72.1689V12.84H59.2329ZM61.4329 8.418C61.5869 8.77 62.0929 9.21 62.9729 9.87C63.8969 10.552 64.8429 11.212 65.7449 11.806L67.2849 9.892C66.2289 9.21 64.9529 8.33 64.2489 7.78C63.0169 6.79 62.7089 6.086 62.7089 4.656V2.214H59.8929V4.7C59.8929 6.02 59.4749 6.988 58.3529 7.956C57.3629 8.814 56.4609 9.518 55.1189 10.464L56.7249 12.488C58.0229 11.542 58.9689 10.772 59.9149 10.002C60.6849 9.386 61.2789 8.792 61.4109 8.418H61.4329ZM69.3969 11.916H72.1689V1.708H69.3969V5.008H65.7889V7.362H69.3969V11.916ZM91.1143 2.39H77.8703V9.672H83.1943V11.366H75.2083V13.632H93.9523V11.366H85.9663V9.672H91.2683V7.406H80.6203V4.656H91.1143V2.39ZM84.5803 22.784C88.1443 22.784 91.1803 21.574 91.1803 19.022V18.362C91.1803 15.81 88.1443 14.6 84.5803 14.6C81.0163 14.6 77.9803 15.81 77.9803 18.362V19.022C77.9803 21.574 81.0163 22.784 84.5803 22.784ZM84.5803 16.844C86.5383 16.844 88.4303 17.504 88.4303 18.538V18.846C88.4303 19.88 86.5383 20.54 84.5803 20.54C82.6223 20.54 80.7303 19.88 80.7303 18.846V18.538C80.7303 17.504 82.6223 16.844 84.5803 16.844ZM111.424 13.368V3.314H97.7838V13.368H103.218V17.24H95.2318V19.594H113.976V17.24H105.99V13.368H111.424ZM100.556 5.646H108.652V11.036H100.556V5.646Z" fill="#14B390"/>
</svg>
